<svg xmlns="http://www.w3.org/2000/svg" width="324" height="125" viewBox="0 0 324 125">
  <g id="니아" transform="translate(-800 -13507)">
    <rect id="사각형_52" data-name="사각형 52" width="324" height="125" transform="translate(800 13507)" fill="#fff" opacity="0.54"/>
    <g id="니아-2" data-name="니아" transform="translate(706.998 13213.477)">
      <g id="그룹_49" data-name="그룹 49" transform="translate(123.002 342.523)">
        <path id="패스_58" data-name="패스 58" d="M205.189,352.739a6.027,6.027,0,0,0-1.19-3.692h2.508v-2.606H200.87v-3.594h-4.156v3.594h-5.638v2.606h2.5a6.053,6.053,0,0,0-1.179,3.692c0,3.694,2.835,6.1,6.4,6.1a6.056,6.056,0,0,0,6.4-6.1m-8.838,0c0-2.176,1.089-3.561,2.441-3.561,1.319,0,2.406,1.385,2.406,3.561,0,2.143-1.087,3.528-2.406,3.528-1.351,0-2.441-1.385-2.441-3.528" transform="translate(-121.499 -342.516)" fill="#005295"/>
        <path id="패스_59" data-name="패스 59" d="M167.966,343.525,157.91,369.606h5.9l1.506-4.187H176.33l1.464,4.187h6.068l-9.925-26.081Zm-1.119,17.64,4.055-11.277,3.941,11.277Z" transform="translate(-122.232 -342.501)" fill="#052d65"/>
        <rect id="사각형_56" data-name="사각형 56" width="5.804" height="26.082" transform="translate(27.534 1.024)" fill="#052d65"/>
        <path id="패스_60" data-name="패스 60" d="M139.951,361.165l-11.145-17.64H123v26.082h5.474V352.031l11.08,17.575h5.836V343.525h-5.441Z" transform="translate(-123.002 -342.501)" fill="#052d65"/>
        <path id="패스_61" data-name="패스 61" d="M367.359,353.565c3.4,0,6.166-2.111,6.166-5.375s-2.77-5.408-6.166-5.408-6.133,2.143-6.133,5.408,2.736,5.375,6.133,5.375m0-8.21c1.22,0,2.176,1.087,2.176,2.835,0,1.714-.956,2.8-2.176,2.8s-2.176-1.089-2.176-2.8c0-1.748.956-2.835,2.176-2.835" transform="translate(-117.742 -342.517)" fill="#005295"/>
        <path id="패스_62" data-name="패스 62" d="M266.906,357.985h15.926c.494,0,.659-.2.659-.659V344.2h-3.957v4.351H270.2V344.2h-3.955v13.124c0,.461.165.659.66.659m12.628-6.792v3.857a.311.311,0,0,1-.329.33h-8.672a.313.313,0,0,1-.331-.33v-3.857Z" transform="translate(-119.84 -342.486)" fill="#005295"/>
        <path id="패스_63" data-name="패스 63" d="M372.064,358.822V361.4h4.716v1.979h3.958V343.589h-3.958v15.233Z" transform="translate(-117.503 -342.499)" fill="#005295"/>
        <rect id="사각형_57" data-name="사각형 57" width="3.957" height="18.697" transform="translate(211.234 1.09)" fill="#005295"/>
        <path id="패스_64" data-name="패스 64" d="M340.626,350.075c0,2.9,2.87,4.781,6.563,4.781,3.594,0,6.562-1.879,6.562-4.781a3.934,3.934,0,0,0-.759-2.341h3.068l.032-2.441h-6.826v-2.771h-4.155v2.771h-6.759v2.441h3.015a3.982,3.982,0,0,0-.741,2.341m6.563,2.241a2.267,2.267,0,1,1,2.605-2.241,2.373,2.373,0,0,1-2.605,2.241" transform="translate(-118.247 -342.523)" fill="#005295"/>
        <path id="패스_65" data-name="패스 65" d="M347.156,359.3c-4.088,0-7.32,2.143-7.32,5.44,0,3.265,3.232,5.408,7.32,5.408,4.056,0,7.32-2.143,7.32-5.408,0-3.3-3.265-5.44-7.32-5.44m0,8.277c-1.881,0-3.429-1.12-3.429-2.836s1.548-2.869,3.429-2.869c1.847,0,3.4,1.155,3.4,2.869s-1.548,2.836-3.4,2.836" transform="translate(-118.215 -342.153)" fill="#005295"/>
        <rect id="사각형_58" data-name="사각형 58" width="22.653" height="2.671" transform="translate(217.698 13.487)" fill="#005295"/>
        <path id="패스_66" data-name="패스 66" d="M321.694,366.3V360.17H317.7v8.41a.578.578,0,0,0,.66.659h16.092v-2.605H322.023a.31.31,0,0,1-.329-.329" transform="translate(-118.703 -342.133)" fill="#005295"/>
        <path id="패스_67" data-name="패스 67" d="M200.646,366.3v-5.8h-3.989v8.079a.578.578,0,0,0,.66.659h16.091v-2.605H200.976a.311.311,0,0,1-.33-.329" transform="translate(-121.376 -342.126)" fill="#005295"/>
        <path id="패스_68" data-name="패스 68" d="M365.125,360.858h3.957V357.1h6.4v-2.671H359.353V357.1h5.771Z" transform="translate(-117.784 -342.26)" fill="#005295"/>
        <path id="패스_69" data-name="패스 69" d="M308.475,343.605h-3.958V362H297.3v-3.766a5.725,5.725,0,0,0,4.286-5.664,5.853,5.853,0,0,0-1.114-3.527H302.7v-2.606H297.4v-3.595H293.24v3.595h-5.308v2.606h2.224a5.888,5.888,0,0,0-1.1,3.527,5.705,5.705,0,0,0,4.288,5.667V362H287.7v2.671h16.818v5.276h3.958V353.86H311.8v-2.671h-3.329Zm-13.157,5.572c1.253,0,2.276,1.286,2.276,3.4,0,2.077-1.023,3.364-2.276,3.364-1.287,0-2.309-1.287-2.309-3.364,0-2.111,1.022-3.4,2.309-3.4" transform="translate(-119.366 -342.516)" fill="#005295"/>
        <path id="패스_70" data-name="패스 70" d="M368.707,366.594a.311.311,0,0,1-.33-.329v-4.319h-3.99v6.594a.578.578,0,0,0,.659.659h16.422v-2.605Z" transform="translate(-117.673 -342.094)" fill="#005295"/>
        <path id="패스_71" data-name="패스 71" d="M320.244,354.981a13.365,13.365,0,0,0,6.715,4.258l1.285-2.375c-3.758-1.252-6.2-3.626-6.2-7.188v-2.87h4.749v-2.6H313.472v2.6h4.617V350c0,3.562-2.111,5.836-5.869,7.09l1.285,2.374a12.314,12.314,0,0,0,6.74-4.488" transform="translate(-118.824 -342.486)" fill="#005295"/>
        <path id="패스_72" data-name="패스 72" d="M236.971,344.635c0-.463-.166-.659-.659-.659H219.2v2.6h13.454a.312.312,0,0,1,.329.33v6.53h-16.29v2.67h9.365v4.32h-6.628v2.6h13.124a.312.312,0,0,1,.331.33v6.562h3.989v-8.838a.579.579,0,0,0-.66-.658H229.98v-4.32h9.365v-2.67h-2.374Z" transform="translate(-120.934 -342.491)" fill="#005295"/>
        <path id="패스_73" data-name="패스 73" d="M212.486,343.589h-3.957v18.7h3.957v-9.1h3.331v-2.672h-3.331Z" transform="translate(-121.114 -342.499)" fill="#005295"/>
        <path id="패스_74" data-name="패스 74" d="M254.588,357.161l1.287-2.374c-3.761-1.253-5.87-3.529-5.87-7.088v-.893h4.583v-2.6H241.6v2.6h4.452v1.22c0,3.562-2.111,5.837-5.869,7.09l1.285,2.375a12.372,12.372,0,0,0,6.684-4.411,12.651,12.651,0,0,0,6.44,4.081" transform="translate(-120.415 -342.486)" fill="#005295"/>
        <path id="패스_75" data-name="패스 75" d="M253.808,357.945c-3.692,0-6.694,2.441-6.694,6.135s3,6.1,6.694,6.1,6.727-2.406,6.727-6.1-3.035-6.135-6.727-6.135m0,9.662c-1.516,0-2.736-1.386-2.736-3.527,0-2.178,1.22-3.563,2.736-3.563s2.737,1.385,2.737,3.563c0,2.141-1.22,3.527-2.737,3.527" transform="translate(-120.262 -342.182)" fill="#005295"/>
        <path id="패스_76" data-name="패스 76" d="M257.731,349.227H253.18V351.8h4.551v6.463h3.957V343.589h-3.957Z" transform="translate(-120.128 -342.499)" fill="#005295"/>
        <path id="패스_77" data-name="패스 77" d="M276.922,358.655h-3.989v5.013H263.6v2.67h22.653v-2.67h-9.332Z" transform="translate(-119.898 -342.167)" fill="#005295"/>
      </g>
    </g>
  </g>
</svg>
