<svg xmlns="http://www.w3.org/2000/svg" width="324" height="125" viewBox="0 0 324 125">
  <g id="기상청" transform="translate(-446 -13507)">
    <rect id="사각형_52" data-name="사각형 52" width="324" height="125" transform="translate(446 13507)" fill="#fff" opacity="0.54"/>
    <g id="기상청-2" data-name="기상청" transform="translate(176.54 28.937)">
      <g id="그룹_47" data-name="그룹 47" transform="translate(346.46 13507.063)">
        <g id="그룹_38" data-name="그룹 38" transform="translate(83.202 20.383)">
          <path id="패스_53" data-name="패스 53" d="M180.261,62.1h-3.389V43H166.336v-3.08h13.925ZM186.3,38.22h3.42V65.7H186.3Z" transform="translate(-166.336 -37.881)" fill="#464545"/>
          <path id="패스_54" data-name="패스 54" d="M224.605,51.647,218.874,43.3l-5.7,8.563-2.741-1.819,8.441-12.322,8.471,12.047Zm7.577,8.04a6.082,6.082,0,0,1-.57,2.6,6.82,6.82,0,0,1-3.788,3.6,7.192,7.192,0,0,1-2.759.538,7.28,7.28,0,0,1-2.772-.538,7.459,7.459,0,0,1-2.311-1.463,7.237,7.237,0,0,1-1.524-2.141,6.233,6.233,0,0,1,0-5.207,7.212,7.212,0,0,1,1.524-2.143,7.406,7.406,0,0,1,2.311-1.462,7.282,7.282,0,0,1,2.772-.54,7.194,7.194,0,0,1,2.759.54,6.807,6.807,0,0,1,3.788,3.605A6.057,6.057,0,0,1,232.182,59.687Zm-3.327-.031a3.568,3.568,0,0,0-1.139-2.648,3.72,3.72,0,0,0-2.68-1.109,3.659,3.659,0,0,0-2.663,1.109,3.7,3.7,0,0,0,0,5.315,3.694,3.694,0,0,0,2.663,1.092,3.757,3.757,0,0,0,2.68-1.092A3.561,3.561,0,0,0,228.855,59.656Zm4.714-16.7h3.943v3.359h-3.943v5.822H230.18V38.061h3.389Z" transform="translate(-180.421 -37.722)" fill="#464545"/>
          <path id="패스_55" data-name="패스 55" d="M257.567,43.206V40.34H264V37.722h3.636V40.34h6.131v2.867h-6.685l6.931,7.022-2.219,2.1L265.823,46.1l-5.914,6.715-2.28-2.124,6.964-7.486ZM279.5,59.687a6.091,6.091,0,0,1-.568,2.6,7.271,7.271,0,0,1-1.526,2.141,7.165,7.165,0,0,1-2.264,1.463,7.46,7.46,0,0,1-5.562,0,7.131,7.131,0,0,1-2.279-1.463,7.2,7.2,0,0,1-1.524-2.141,6.22,6.22,0,0,1,0-5.207,7.178,7.178,0,0,1,1.524-2.143,7.081,7.081,0,0,1,2.279-1.462,7.434,7.434,0,0,1,5.562,0,7.114,7.114,0,0,1,2.264,1.462,7.245,7.245,0,0,1,1.526,2.143A6.065,6.065,0,0,1,279.5,59.687Zm-3.357-.031a3.588,3.588,0,0,0-1.124-2.648,3.7,3.7,0,0,0-2.7-1.109,3.759,3.759,0,1,0,0,7.517,3.741,3.741,0,0,0,2.7-1.092A3.582,3.582,0,0,0,276.143,59.656Zm2.281-6.962V47.457h-4.806V44.531h4.806v-6.47h3.419V52.694Z" transform="translate(-195.476 -37.722)" fill="#464545"/>
        </g>
        <g id="그룹_46" data-name="그룹 46" transform="translate(0 0)">
          <g id="그룹_45" data-name="그룹 45">
            <g id="그룹_44" data-name="그룹 44">
              <g id="그룹_43" data-name="그룹 43">
                <g id="그룹_42" data-name="그룹 42">
                  <g id="그룹_41" data-name="그룹 41">
                    <g id="그룹_39" data-name="그룹 39">
                      <path id="패스_56" data-name="패스 56" d="M95.589,39.61A12.027,12.027,0,0,0,78.481,43.2a12.038,12.038,0,0,1-21.763-3.31h0c-.014-.046-.021-.081-.034-.126s-.028-.1-.04-.153a15.406,15.406,0,0,1-.616-4.782c0-10.789,11.068-22.8,27.012-22.8,16.324,0,25.665,12.428,28.071,19.335-.041-.12-.078-.242-.121-.367a34.38,34.38,0,0,0-66.9,11.154c0,16.97,12.24,31.5,29.217,31.5,13.543,0,22.642-7.593,26.817-18.055A13.248,13.248,0,0,0,95.589,39.61Z" transform="translate(-44.088 -7.774)" fill="#002b51"/>
                    </g>
                    <g id="그룹_40" data-name="그룹 40" transform="translate(11.938 4.255)">
                      <path id="패스_57" data-name="패스 57" d="M116.926,34.032c-2.006-6.738-11.417-20.006-28.286-20.006-15.944,0-27.012,12.012-27.012,22.8a15.406,15.406,0,0,0,.616,4.782,10.07,10.07,0,0,1-.317-2.454c0-11.234,11.252-19.021,22.816-19.021a28.343,28.343,0,0,1,28.344,28.342A31.243,31.243,0,0,1,95.764,76.472l0,.008a34.386,34.386,0,0,0,22.671-32.332A33.952,33.952,0,0,0,116.926,34.032Z" transform="translate(-61.628 -14.026)" fill="#da0021"/>
                    </g>
                  </g>
                </g>
              </g>
            </g>
          </g>
        </g>
      </g>
    </g>
  </g>
</svg>
